<?xml version="1.0" encoding="UTF-8"?>
<svg xmlns="http://www.w3.org/2000/svg" viewBox="0 0 64 64" width="64" height="64" fill="none">
  <title>SBH Shipping — Logo Mark</title>
  <defs>
    <linearGradient id="sbhGrad" x1="0" y1="0" x2="64" y2="64" gradientUnits="userSpaceOnUse">
      <stop offset="0%" stop-color="#0066ff"></stop>
      <stop offset="100%" stop-color="#00d4ff"></stop>
    </linearGradient>
    <radialGradient id="sbhBeam" cx="50%" cy="0%" r="60%">
      <stop offset="0%" stop-color="#00d4ff" stop-opacity="0.65"></stop>
      <stop offset="100%" stop-color="#00d4ff" stop-opacity="0"></stop>
    </radialGradient>
  </defs>

  
  <circle cx="32" cy="32" r="29" stroke="url(#sbhGrad)" stroke-width="1.4" fill="none" opacity="0.55"></circle>

  
  <path d="M32 19 L18 7 L46 7 Z" fill="url(#sbhBeam)" opacity="0.9"></path>
  <line x1="32" y1="19" x2="14" y2="10" stroke="#00d4ff" stroke-width="0.7" opacity="0.45"></line>
  <line x1="32" y1="19" x2="50" y2="10" stroke="#00d4ff" stroke-width="0.7" opacity="0.45"></line>

  
  <path d="M27 16 L37 16 L32 11 Z" fill="#0066ff"></path>
  
  <circle cx="32" cy="18.5" r="2.8" fill="#00d4ff"></circle>
  <circle cx="32" cy="18.5" r="1.4" fill="#ffffff"></circle>
  
  <rect x="28" y="20" width="8" height="2.4" fill="#0066ff"></rect>

  
  <path d="M27 22 L37 22 L35.5 38 L28.5 38 Z" fill="rgba(0,102,255,0.18)" stroke="#0066ff" stroke-width="1.4"></path>
  
  <rect x="27.4" y="26" width="9.2" height="2.2" fill="#0066ff" opacity="0.7"></rect>
  <rect x="28" y="32" width="8" height="2.2" fill="#0066ff" opacity="0.7"></rect>
  
  <circle cx="32" cy="29.1" r="0.9" fill="#00d4ff"></circle>

  
  <path d="M8 38 L56 38 L52 48 L12 48 Z" fill="rgba(0,102,255,0.15)" stroke="#0066ff" stroke-width="1.7"></path>
  <line x1="12" y1="43" x2="52" y2="43" stroke="#0066ff" stroke-width="0.5" opacity="0.5"></line>

  
  <rect x="14" y="34" width="7" height="4" fill="#0066ff" opacity="0.85"></rect>
  <rect x="22" y="34" width="3.5" height="4" fill="#00d4ff" opacity="0.85"></rect>
  <rect x="38.5" y="34" width="3.5" height="4" fill="#00d4ff" opacity="0.85"></rect>
  <rect x="43" y="34" width="7" height="4" fill="#0066ff" opacity="0.85"></rect>

  
  <path d="M6 53 Q14 51 22 53 Q30 55 38 53 Q46 51 54 53 Q58 54 60 53" stroke="#0066ff" stroke-width="1.4" fill="none" stroke-linecap="round"></path>
  <path d="M9 57 Q17 55.5 25 57 Q33 58.5 41 57 Q49 55.5 55 57" stroke="#00d4ff" stroke-width="1.1" fill="none" stroke-linecap="round" opacity="0.75"></path>
</svg>