<svg xmlns="http://www.w3.org/2000/svg" viewBox="0 0 260 260" width="260" height="260">
  <defs>
    <mask id="cutouts" maskUnits="userSpaceOnUse" x="0" y="0" width="260" height="260">
      <rect width="260" height="260" fill="white"></rect>
      <rect x="100" y="88" width="4" height="14" rx="0.5" fill="black"></rect>
      <rect x="108" y="88" width="4" height="14" rx="0.5" fill="black"></rect>
      <rect x="116" y="88" width="4" height="14" rx="0.5" fill="black"></rect>
      <rect x="124" y="88" width="4" height="14" rx="0.5" fill="black"></rect>
      <rect x="132" y="88" width="4" height="14" rx="0.5" fill="black"></rect>
      <rect x="140" y="88" width="4" height="14" rx="0.5" fill="black"></rect>
      <rect x="148" y="88" width="4" height="14" rx="0.5" fill="black"></rect>
      <rect x="156" y="88" width="4" height="14" rx="0.5" fill="black"></rect>
      <rect x="82.5" y="113" width="5" height="16" rx="0.5" fill="black"></rect>
      <rect x="92.5" y="113" width="5" height="16" rx="0.5" fill="black"></rect>
      <rect x="102.5" y="113" width="5" height="16" rx="0.5" fill="black"></rect>
      <rect x="112.5" y="113" width="5" height="16" rx="0.5" fill="black"></rect>
      <rect x="122.5" y="113" width="5" height="16" rx="0.5" fill="black"></rect>
      <rect x="132.5" y="113" width="5" height="16" rx="0.5" fill="black"></rect>
      <rect x="142.5" y="113" width="5" height="16" rx="0.5" fill="black"></rect>
      <rect x="152.5" y="113" width="5" height="16" rx="0.5" fill="black"></rect>
      <rect x="162.5" y="113" width="5" height="16" rx="0.5" fill="black"></rect>
      <rect x="172.5" y="113" width="5" height="16" rx="0.5" fill="black"></rect>
      <rect x="124" y="36" width="12" height="6" fill="black"></rect>
      <rect x="121" y="55" width="18" height="1.6" fill="black"></rect>
      <rect x="120.5" y="65" width="19" height="1.6" fill="black"></rect>
    </mask>
  </defs>

  
  <g fill="#1a1f3a" mask="url(#cutouts)">
    
    <rect x="129" y="6" width="2" height="22"></rect>
    <circle cx="130" cy="4" r="2"></circle>
    <rect x="126" y="12" width="8" height="1.4"></rect>
    <rect x="125" y="16" width="10" height="1.4"></rect>
    
    <path d="M120 28 L140 28 L136 34 L124 34 Z"></path>
    <rect x="122" y="34" width="16" height="10"></rect>
    <rect x="118" y="44" width="24" height="2"></rect>
    
    <path d="M122 46 L138 46 L141 78 L119 78 Z"></path>
    <rect x="115" y="78" width="30" height="4"></rect>
    
    <path d="M96 82 L164 82 L164 108 L96 108 Z"></path>
    <path d="M76 108 L184 108 L184 134 L76 134 Z"></path>
    
    <rect x="40" y="134" width="180" height="4"></rect>
    <path d="M40 138 L130 210 L220 138 L208 138 L130 204 L52 138 Z"></path>
    <path d="M128 144 L128 214 L132 214 L132 144 Z"></path>
  </g>

  
  <circle cx="130" cy="39" r="1.6" fill="#d4b97a"></circle>

  
  <g fill="none" stroke-linecap="round">
    <path d="M16 222 Q52 217 88 222 Q124 227 160 222 Q196 217 244 222" stroke="#1a1f3a" stroke-width="1.8"></path>
    <path d="M22 234 Q56 230 90 234 Q124 238 158 234 Q192 230 238 234" stroke="#1a1f3a" stroke-width="1.2" opacity="0.7"></path>
    <path d="M30 244 Q60 241 90 244 Q120 247 150 244 Q180 241 230 244" stroke="#1a1f3a" stroke-width="0.7" opacity="0.45"></path>
  </g>
</svg>